<svg width="142" height="284" viewBox="0 0 142 284" fill="none" xmlns="http://www.w3.org/2000/svg">
<path d="M0.967969 284V0.499978H71.318C88.3513 0.499978 101.885 3.64998 111.918 9.94998C122.185 16.0167 129.651 24.8833 134.318 36.55C138.985 48.2167 141.318 62.3333 141.318 78.9C141.318 93.8333 138.635 106.783 133.268 117.75C128.135 128.717 120.435 137.233 110.168 143.3C99.9013 149.133 87.068 152.05 71.668 152.05H40.518V284H0.967969ZM40.518 123.7H58.718C70.1513 123.7 79.1346 122.417 85.668 119.85C92.2013 117.283 96.868 112.85 99.668 106.55C102.468 100.017 103.868 90.9167 103.868 79.25C103.868 65.7167 102.818 55.3333 100.718 48.1C98.8513 40.8667 94.768 35.85 88.468 33.05C82.168 30.25 72.368 28.85 59.068 28.85H40.518V123.7Z" fill="url(#paint0_linear_21_47)"/>
<defs>
<linearGradient id="paint0_linear_21_47" x1="63" y1="384" x2="63" y2="-134" gradientUnits="userSpaceOnUse">
<stop offset="0.27" stop-color="#8BCD45"/>
<stop offset="0.27" stop-color="#6FB02B"/>
<stop offset="0.37" stop-color="#6FB02B"/>
<stop offset="0.37" stop-color="#599817"/>
<stop offset="0.47" stop-color="#599817"/>
<stop offset="0.47" stop-color="#487D0F"/>
<stop offset="0.57" stop-color="#487D0F"/>
<stop offset="0.57" stop-color="#3A6808"/>
<stop offset="0.67" stop-color="#3A6808"/>
<stop offset="0.67" stop-color="#2B4F04"/>
</linearGradient>
</defs>
</svg>
